<svg preserveAspectRatio="xMidYMid meet" width="100%" height="100%" overflow="visible" style="display: block;" viewBox="8 11 59 53" fill="none" xmlns="http://www.w3.org/2000/svg">
<g id="Group 3">
<path id="Vector" d="M37.4101 19.4651L38.7965 17.069C39.6522 15.5715 41.5605 15.0666 43.0581 15.9223C44.5556 16.7781 45.0605 18.6864 44.2048 20.1839L30.8466 43.3062H40.508C43.64 43.3062 45.3943 46.986 44.0336 49.5361H15.7084C13.9798 49.5361 12.5934 48.1498 12.5934 46.4212C12.5934 44.6926 13.9798 43.3062 15.7084 43.3062H23.6497L33.816 25.6864L30.6412 20.1754C29.7854 18.6778 30.2903 16.7866 31.7879 15.9138C33.2854 15.058 35.1766 15.5629 36.0495 17.0605L37.4101 19.4651ZM25.3954 52.7452L22.4003 57.9395C21.5446 59.4371 19.6363 59.942 18.1387 59.0862C16.6411 58.2305 16.1362 56.3222 16.992 54.8246L19.2169 50.9738C21.7328 50.195 23.7781 50.794 25.3954 52.7452ZM51.1877 43.3234H59.2916C61.0202 43.3234 62.4066 44.7097 62.4066 46.4383C62.4066 48.1669 61.0202 49.5532 59.2916 49.5532H54.7904L57.8283 54.8246C58.684 56.3222 58.1792 58.2134 56.6816 59.0862C55.184 59.942 53.2928 59.4371 52.42 57.9395C47.3026 49.0654 43.4603 42.4248 40.9102 38.0006C38.3001 33.4994 40.1657 28.981 42.0055 27.4492C44.0507 30.9578 47.1058 36.2549 51.1877 43.3234Z" fill="url(#paint0_linear_131_3923)"/>
</g>
<defs>
<linearGradient id="paint0_linear_131_3923" x1="37.5" y1="15.4979" x2="37.5" y2="59.5021" gradientUnits="userSpaceOnUse">
<stop stop-color="#22B5FA"/>
<stop offset="1" stop-color="#1B67F2"/>
</linearGradient>
</defs>
</svg>
