<svg preserveAspectRatio="none" width="100%" height="100%" overflow="visible" style="display: block;" viewBox="0 0 38.4092 42.381" fill="none" xmlns="http://www.w3.org/2000/svg">
<g id="Group 31">
<path id="Vector" d="M17.9375 20.2422L0.159286 38.8683C0.358911 39.5758 0.717667 40.2283 1.20813 40.776C1.69859 41.3236 2.30777 41.7518 2.9891 42.028C3.67043 42.3041 4.40588 42.4207 5.13921 42.3691C5.87254 42.3174 6.58435 42.0987 7.22022 41.7298L27.224 30.3369L17.9375 20.2422Z" fill="var(--fill-0, #EA4335)"/>
<path id="Vector_2" d="M35.9142 17.0761L27.2636 12.1215L17.5266 20.6662L27.3033 30.3104L35.8877 25.4088C36.6482 25.0106 37.2853 24.4118 37.7297 23.6774C38.1742 22.943 38.4092 22.1009 38.4092 21.2424C38.4092 20.384 38.1742 19.5419 37.7297 18.8075C37.2853 18.073 36.6482 17.4743 35.8877 17.0761H35.9142Z" fill="var(--fill-0, #FBBC04)"/>
<path id="Vector_3" d="M0.159183 3.52386C0.0517174 3.92113 -0.00175332 4.33108 0.000212508 4.74263V37.6495C0.00128739 38.0609 0.0547066 38.4704 0.159183 38.8683L18.5468 20.7192L0.159183 3.52386Z" fill="var(--fill-0, #4285F4)"/>
<path id="Vector_4" d="M18.07 21.1961L27.2637 12.1215L7.28646 0.675634C6.53491 0.235472 5.68013 0.00234991 4.80917 9.47482e-06C3.75729 -0.00207504 2.73358 0.339846 1.89409 0.97365C1.0546 1.60746 0.445373 2.49838 0.159286 3.51061L18.07 21.1961Z" fill="var(--fill-0, #34A853)"/>
</g>
</svg>
