<svg preserveAspectRatio="none" width="100%" height="100%" overflow="visible" style="display: block;" viewBox="0 0 43.248 43.248" fill="none" xmlns="http://www.w3.org/2000/svg">
<g id="Instagram">
<g id="Symbol">
<path fill-rule="evenodd" clip-rule="evenodd" d="M10.5198 21.6241C10.5198 15.4913 15.4913 10.5198 21.6241 10.5198C27.7568 10.5198 32.7282 15.4913 32.7282 21.6241C32.7282 27.7568 27.7568 32.7282 21.6241 32.7282C15.4913 32.7282 10.5198 27.7568 10.5198 21.6241ZM21.6241 28.832C17.6431 28.832 14.416 25.6049 14.416 21.6241C14.416 17.6431 17.6431 14.416 21.6241 14.416C25.6049 14.416 28.832 17.6431 28.832 21.6241C28.832 25.6049 25.6049 28.832 21.6241 28.832Z" fill="url(#paint0_linear_131_3906)"/>
<path fill-rule="evenodd" clip-rule="evenodd" d="M10.5198 21.6241C10.5198 15.4913 15.4913 10.5198 21.6241 10.5198C27.7568 10.5198 32.7282 15.4913 32.7282 21.6241C32.7282 27.7568 27.7568 32.7282 21.6241 32.7282C15.4913 32.7282 10.5198 27.7568 10.5198 21.6241ZM21.6241 28.832C17.6431 28.832 14.416 25.6049 14.416 21.6241C14.416 17.6431 17.6431 14.416 21.6241 14.416C25.6049 14.416 28.832 17.6431 28.832 21.6241C28.832 25.6049 25.6049 28.832 21.6241 28.832Z" fill="url(#paint1_radial_131_3906)"/>
<path d="M33.167 12.6759C34.6001 12.6759 35.7619 11.5142 35.7619 10.0811C35.7619 8.64796 34.6001 7.48616 33.167 7.48616C31.7339 7.48616 30.5721 8.64796 30.5721 10.0811C30.5721 11.5142 31.7339 12.6759 33.167 12.6759Z" fill="url(#paint2_linear_131_3906)"/>
<path d="M33.167 12.6759C34.6001 12.6759 35.7619 11.5142 35.7619 10.0811C35.7619 8.64796 34.6001 7.48616 33.167 7.48616C31.7339 7.48616 30.5721 8.64796 30.5721 10.0811C30.5721 11.5142 31.7339 12.6759 33.167 12.6759Z" fill="url(#paint3_radial_131_3906)"/>
<path fill-rule="evenodd" clip-rule="evenodd" d="M21.6241 0C15.7513 0 15.0149 0.0248927 12.7085 0.130128C10.4068 0.235107 8.83491 0.600685 7.45947 1.13528C6.0375 1.68781 4.83158 2.4272 3.62935 3.62935C2.4272 4.83158 1.68781 6.0375 1.13528 7.45947C0.600685 8.83491 0.235107 10.4068 0.130128 12.7085C0.0248927 15.0149 0 15.7513 0 21.6241C0 27.4968 0.0248927 28.2331 0.130128 30.5396C0.235107 32.8412 0.600685 34.4131 1.13528 35.7886C1.68781 37.2105 2.4272 38.4165 3.62935 39.6187C4.83158 40.8208 6.0375 41.5602 7.45947 42.1129C8.83491 42.6474 10.4068 43.0129 12.7085 43.1179C15.0149 43.2232 15.7513 43.248 21.6241 43.248C27.4968 43.248 28.2331 43.2232 30.5396 43.1179C32.8412 43.0129 34.4131 42.6474 35.7886 42.1129C37.2105 41.5602 38.4165 40.8208 39.6187 39.6187C40.8208 38.4165 41.5602 37.2105 42.1129 35.7886C42.6474 34.4131 43.0129 32.8412 43.1179 30.5396C43.2232 28.2331 43.248 27.4968 43.248 21.6241C43.248 15.7513 43.2232 15.0149 43.1179 12.7085C43.0129 10.4068 42.6474 8.83491 42.1129 7.45947C41.5602 6.0375 40.8208 4.83158 39.6187 3.62935C38.4165 2.4272 37.2105 1.68781 35.7886 1.13528C34.4131 0.600685 32.8412 0.235107 30.5396 0.130128C28.2331 0.0248927 27.4968 0 21.6241 0ZM21.6241 3.89621C27.3979 3.89621 28.0818 3.91827 30.362 4.02231C32.4703 4.11844 33.6153 4.47072 34.3773 4.76685C35.3866 5.15913 36.107 5.62771 36.8636 6.38445C37.6203 7.1411 38.0889 7.86144 38.4812 8.87079C38.7773 9.63277 39.1296 10.7777 39.2257 12.8861C39.3298 15.1662 39.3518 15.8502 39.3518 21.6241C39.3518 27.3979 39.3298 28.0818 39.2257 30.362C39.1296 32.4703 38.7773 33.6153 38.4812 34.3773C38.0889 35.3866 37.6203 36.1069 36.8636 36.8636C36.107 37.6203 35.3866 38.0889 34.3773 38.4812C33.6153 38.7773 32.4703 39.1296 30.362 39.2257C28.0822 39.3298 27.3983 39.3518 21.6241 39.3518C15.8498 39.3518 15.166 39.3298 12.8861 39.2257C10.7777 39.1296 9.63277 38.7773 8.8708 38.4812C7.86144 38.0889 7.1411 37.6203 6.38445 36.8636C5.6278 36.1069 5.15913 35.3866 4.76686 34.3773C4.47072 33.6153 4.11845 32.4703 4.02231 30.362C3.91828 28.0818 3.89622 27.3979 3.89622 21.6241C3.89622 15.8502 3.91828 15.1662 4.02231 12.8861C4.11845 10.7777 4.47072 9.63277 4.76686 8.87079C5.15913 7.86144 5.62772 7.1411 6.38445 6.38445C7.1411 5.62771 7.86144 5.15913 8.8708 4.76685C9.63277 4.47072 10.7777 4.11844 12.8861 4.02231C15.1662 3.91827 15.8502 3.89621 21.6241 3.89621Z" fill="url(#paint4_linear_131_3906)"/>
<path fill-rule="evenodd" clip-rule="evenodd" d="M21.6241 0C15.7513 0 15.0149 0.0248927 12.7085 0.130128C10.4068 0.235107 8.83491 0.600685 7.45947 1.13528C6.0375 1.68781 4.83158 2.4272 3.62935 3.62935C2.4272 4.83158 1.68781 6.0375 1.13528 7.45947C0.600685 8.83491 0.235107 10.4068 0.130128 12.7085C0.0248927 15.0149 0 15.7513 0 21.6241C0 27.4968 0.0248927 28.2331 0.130128 30.5396C0.235107 32.8412 0.600685 34.4131 1.13528 35.7886C1.68781 37.2105 2.4272 38.4165 3.62935 39.6187C4.83158 40.8208 6.0375 41.5602 7.45947 42.1129C8.83491 42.6474 10.4068 43.0129 12.7085 43.1179C15.0149 43.2232 15.7513 43.248 21.6241 43.248C27.4968 43.248 28.2331 43.2232 30.5396 43.1179C32.8412 43.0129 34.4131 42.6474 35.7886 42.1129C37.2105 41.5602 38.4165 40.8208 39.6187 39.6187C40.8208 38.4165 41.5602 37.2105 42.1129 35.7886C42.6474 34.4131 43.0129 32.8412 43.1179 30.5396C43.2232 28.2331 43.248 27.4968 43.248 21.6241C43.248 15.7513 43.2232 15.0149 43.1179 12.7085C43.0129 10.4068 42.6474 8.83491 42.1129 7.45947C41.5602 6.0375 40.8208 4.83158 39.6187 3.62935C38.4165 2.4272 37.2105 1.68781 35.7886 1.13528C34.4131 0.600685 32.8412 0.235107 30.5396 0.130128C28.2331 0.0248927 27.4968 0 21.6241 0ZM21.6241 3.89621C27.3979 3.89621 28.0818 3.91827 30.362 4.02231C32.4703 4.11844 33.6153 4.47072 34.3773 4.76685C35.3866 5.15913 36.107 5.62771 36.8636 6.38445C37.6203 7.1411 38.0889 7.86144 38.4812 8.87079C38.7773 9.63277 39.1296 10.7777 39.2257 12.8861C39.3298 15.1662 39.3518 15.8502 39.3518 21.6241C39.3518 27.3979 39.3298 28.0818 39.2257 30.362C39.1296 32.4703 38.7773 33.6153 38.4812 34.3773C38.0889 35.3866 37.6203 36.1069 36.8636 36.8636C36.107 37.6203 35.3866 38.0889 34.3773 38.4812C33.6153 38.7773 32.4703 39.1296 30.362 39.2257C28.0822 39.3298 27.3983 39.3518 21.6241 39.3518C15.8498 39.3518 15.166 39.3298 12.8861 39.2257C10.7777 39.1296 9.63277 38.7773 8.8708 38.4812C7.86144 38.0889 7.1411 37.6203 6.38445 36.8636C5.6278 36.1069 5.15913 35.3866 4.76686 34.3773C4.47072 33.6153 4.11845 32.4703 4.02231 30.362C3.91828 28.0818 3.89622 27.3979 3.89622 21.6241C3.89622 15.8502 3.91828 15.1662 4.02231 12.8861C4.11845 10.7777 4.47072 9.63277 4.76686 8.87079C5.15913 7.86144 5.62772 7.1411 6.38445 6.38445C7.1411 5.62771 7.86144 5.15913 8.8708 4.76685C9.63277 4.47072 10.7777 4.11844 12.8861 4.02231C15.1662 3.91827 15.8502 3.89621 21.6241 3.89621Z" fill="url(#paint5_radial_131_3906)"/>
</g>
</g>
<defs>
<linearGradient id="paint0_linear_131_3906" x1="2.52339" y1="2.27368" x2="16.1591" y2="55.0184" gradientUnits="userSpaceOnUse">
<stop stop-color="#4E60D3"/>
<stop offset="0.142763" stop-color="#913BAF"/>
<stop offset="0.761458" stop-color="#D52D88"/>
<stop offset="1" stop-color="#F26D4F"/>
</linearGradient>
<radialGradient id="paint1_radial_131_3906" cx="0" cy="0" r="1" gradientUnits="userSpaceOnUse" gradientTransform="translate(13.0931 43.248) rotate(32.1601) scale(40.3914 29.0684)">
<stop stop-color="#FED276"/>
<stop offset="0.17024" stop-color="#FDBD61" stop-opacity="0.975006"/>
<stop offset="0.454081" stop-color="#F6804D"/>
<stop offset="1" stop-color="#E83D5C" stop-opacity="0.01"/>
</radialGradient>
<linearGradient id="paint2_linear_131_3906" x1="2.52339" y1="2.27368" x2="16.1591" y2="55.0184" gradientUnits="userSpaceOnUse">
<stop stop-color="#4E60D3"/>
<stop offset="0.142763" stop-color="#913BAF"/>
<stop offset="0.761458" stop-color="#D52D88"/>
<stop offset="1" stop-color="#F26D4F"/>
</linearGradient>
<radialGradient id="paint3_radial_131_3906" cx="0" cy="0" r="1" gradientUnits="userSpaceOnUse" gradientTransform="translate(13.0931 43.248) rotate(32.1601) scale(40.3914 29.0684)">
<stop stop-color="#FED276"/>
<stop offset="0.17024" stop-color="#FDBD61" stop-opacity="0.975006"/>
<stop offset="0.454081" stop-color="#F6804D"/>
<stop offset="1" stop-color="#E83D5C" stop-opacity="0.01"/>
</radialGradient>
<linearGradient id="paint4_linear_131_3906" x1="2.52339" y1="2.27368" x2="16.1591" y2="55.0184" gradientUnits="userSpaceOnUse">
<stop stop-color="#4E60D3"/>
<stop offset="0.142763" stop-color="#913BAF"/>
<stop offset="0.761458" stop-color="#D52D88"/>
<stop offset="1" stop-color="#F26D4F"/>
</linearGradient>
<radialGradient id="paint5_radial_131_3906" cx="0" cy="0" r="1" gradientUnits="userSpaceOnUse" gradientTransform="translate(13.0931 43.248) rotate(32.1601) scale(40.3914 29.0684)">
<stop stop-color="#FED276"/>
<stop offset="0.17024" stop-color="#FDBD61" stop-opacity="0.975006"/>
<stop offset="0.454081" stop-color="#F6804D"/>
<stop offset="1" stop-color="#E83D5C" stop-opacity="0.01"/>
</radialGradient>
</defs>
</svg>
