<svg preserveAspectRatio="none" width="100%" height="100%" overflow="visible" style="display: block;" viewBox="0 0 36.7525 41.5345" fill="none" xmlns="http://www.w3.org/2000/svg">
<g id="ELEMENTS">
<path id="Vector" fill-rule="evenodd" clip-rule="evenodd" d="M27.2317 15.0083C30.0119 16.9848 33.3413 18.0407 36.7524 18.0279V11.2676C36.0818 11.2695 35.4131 11.1977 34.7581 11.0535V16.4392C31.3394 16.4453 28.0051 15.3772 25.2261 13.3858V27.2895C25.2177 29.571 24.5921 31.8077 23.4155 33.7624C22.2389 35.7171 20.5553 37.3169 18.5432 38.3923C16.531 39.4677 14.2653 39.9785 11.9864 39.8705C9.70749 39.7626 7.50025 39.04 5.59874 37.7792C7.35759 39.5588 9.60496 40.7765 12.0563 41.2779C14.5076 41.7794 17.0526 41.5422 19.369 40.5964C21.6854 39.6505 23.6691 38.0385 25.0688 35.9645C26.4684 33.8905 27.2212 31.4479 27.2317 28.9458V15.0083ZM29.6992 8.11282C28.2854 6.58038 27.4179 4.62352 27.2317 2.54684V1.668H25.3388C25.5728 2.98804 26.0819 4.24405 26.8332 5.35441C27.5844 6.46476 28.5609 7.40459 29.6992 8.11282V8.11282ZM9.98167 32.4273C9.3256 31.5694 8.92354 30.5446 8.82126 29.4694C8.71897 28.3942 8.92057 27.3119 9.4031 26.3457C9.88563 25.3794 10.6297 24.5681 11.5507 24.0039C12.4716 23.4397 13.5325 23.1454 14.6125 23.1545C15.2087 23.1543 15.8015 23.2455 16.3701 23.4249V16.4392C15.7054 16.3512 15.035 16.3135 14.3646 16.3266V21.7573C12.98 21.3197 11.4814 21.4192 10.1668 22.0361C8.85226 22.6531 7.81807 23.7422 7.26997 25.0869C6.72186 26.4316 6.69998 27.9334 7.2087 29.2935C7.71741 30.6536 8.71943 31.7724 10.0155 32.4273H9.98167Z" fill="var(--fill-0, #EE1D52)"/>
<path id="Vector_2" fill-rule="evenodd" clip-rule="evenodd" d="M25.2255 13.3408C28.0045 15.3322 31.3388 16.4002 34.7575 16.3942V11.0085C32.8097 10.5966 31.0402 9.58381 29.6986 8.11282C28.5603 7.40459 27.5838 6.46476 26.8326 5.35441C26.0813 4.24405 25.5722 2.98804 25.3382 1.668H20.3581V28.9458C20.3535 30.1532 19.9708 31.3288 19.2639 32.3077C18.557 33.2865 17.5613 34.0194 16.4166 34.4035C15.2719 34.7875 14.0357 34.8034 12.8815 34.449C11.7272 34.0946 10.713 33.3876 9.98106 32.4273C8.82115 31.8421 7.89223 30.8831 7.34419 29.7051C6.79615 28.5272 6.66095 27.1989 6.9604 25.9347C7.25986 24.6705 7.97651 23.544 8.99471 22.7371C10.0129 21.9301 11.2733 21.4897 12.5725 21.4869C13.1686 21.4888 13.7611 21.58 14.3302 21.7573V16.3266C11.8712 16.3856 9.48302 17.1613 7.45871 18.5585C5.4344 19.9557 3.86209 21.9135 2.93479 24.1917C2.00749 26.4699 1.76555 28.9692 2.23868 31.3829C2.7118 33.7967 3.8794 36.0197 5.59814 37.7792C7.50004 39.049 9.71076 39.7791 11.9948 39.8918C14.2789 40.0044 16.5507 39.4954 18.5683 38.419C20.5859 37.3425 22.2738 35.739 23.4521 33.779C24.6304 31.8191 25.255 29.5763 25.2593 27.2895L25.2255 13.3408Z" fill="var(--fill-0, black)"/>
<path id="Vector_3" fill-rule="evenodd" clip-rule="evenodd" d="M34.758 11.008V9.55455C32.9692 9.56215 31.215 9.06205 29.6991 8.11235C31.0373 9.58758 32.8082 10.6012 34.758 11.008V11.008ZM25.3387 1.66754C25.3387 1.40839 25.2598 1.13798 25.226 0.878838V0H18.3531V27.289C18.3471 28.8171 17.7351 30.2803 16.6515 31.3576C15.5678 32.4349 14.101 33.0383 12.573 33.0353C11.6733 33.0398 10.7853 32.8313 9.98156 32.4269C10.7135 33.3872 11.7277 34.0941 12.882 34.4486C14.0362 34.803 15.2724 34.787 16.4171 34.403C17.5618 34.0189 18.5575 33.286 19.2644 32.3072C19.9713 31.3284 20.354 30.1527 20.3586 28.9453V1.66754H25.3387ZM14.3307 16.3148V14.7712C11.5025 14.387 8.62757 14.9721 6.17444 16.431C3.72131 17.8899 1.83462 20.1366 0.821873 22.805C-0.190878 25.4735 -0.269983 28.4063 0.597452 31.1254C1.46489 33.8446 3.22772 36.1898 5.59864 37.7788C3.8929 36.0152 2.73774 33.793 2.27427 31.3837C1.81081 28.9743 2.0591 26.4822 2.98883 24.2116C3.91855 21.9411 5.48945 19.9905 7.50961 18.5981C9.52977 17.2058 11.9117 16.432 14.3645 16.3712L14.3307 16.3148Z" fill="var(--fill-0, #69C9D0)"/>
</g>
</svg>
